<?xml version="1.0" encoding="UTF-8"?>
<!DOCTYPE svg PUBLIC "-//W3C//DTD SVG 1.1//EN" "http://www.w3.org/Graphics/SVG/1.1/DTD/svg11.dtd">
<!-- Creator: CorelDRAW 2017 -->
<svg xmlns="http://www.w3.org/2000/svg" xml:space="preserve" width="23.8262mm" height="23.8262mm" version="1.1" style="shape-rendering:geometricPrecision; text-rendering:geometricPrecision; image-rendering:optimizeQuality; fill-rule:evenodd; clip-rule:evenodd"
viewBox="0 0 12500.83 12500.83"
 xmlns:xlink="http://www.w3.org/1999/xlink">
 <defs>
  <style type="text/css">
   <![CDATA[
    .fil0 {fill:#428ACA;fill-rule:nonzero}
   ]]>
  </style>
 </defs>
 <g id="Layer_x0020_1">
  <metadata id="CorelCorpID_0Corel-Layer"/>
  <g id="_2530106547120">
   <g>
    <path class="fil0" d="M8301.71 7432.54l-139.09 0c-38.46,0 -69.52,-31.17 -69.52,-69.52 0,-38.41 31.06,-69.52 69.52,-69.52l69.52 0 0 -1272.69c0,-333.43 -276.66,-604.78 -616.75,-604.78l-356.72 0c-38.46,0 -69.52,-31.11 -69.52,-69.52 0,-38.35 31.06,-69.52 69.52,-69.52l356.72 0c416.8,0 755.84,333.64 755.84,743.82l0 1342.2c0,38.35 -31.06,69.52 -69.52,69.52z"/>
    <path class="fil0" d="M7954.01 8823.23c-38.46,0 -69.52,-31.11 -69.52,-69.52l0 -2503.24c0,-38.35 31.06,-69.52 69.52,-69.52l65.22 0c38.41,0 69.57,31.17 69.57,69.52 0,36.94 -28.86,67.16 -65.22,69.41l0 2433.83c0,38.41 -31.11,69.52 -69.57,69.52z"/>
    <path class="fil0" d="M7465.65 8823.23c-38.41,0 -69.52,-31.11 -69.52,-69.52l0 -1321.17c0,-38.35 31.11,-69.52 69.52,-69.52 38.41,0 69.57,31.17 69.57,69.52l0 1321.17c0,38.41 -31.17,69.52 -69.57,69.52z"/>
    <path class="fil0" d="M7465.65 4303.53c-205.09,0 -278.13,179.59 -278.13,347.64 0,168.05 73.03,347.64 278.13,347.64 205.09,0 278.18,-179.59 278.18,-347.64 0,-168.05 -73.09,-347.64 -278.18,-347.64zm0 834.38c-249.53,0 -417.16,-195.6 -417.16,-486.73 0,-291.14 167.63,-486.73 417.16,-486.73 249.53,0 417.22,195.6 417.22,486.73 0,291.14 -167.68,486.73 -417.22,486.73z"/>
    <path class="fil0" d="M9275.18 7502.06l-139.09 0c-38.46,0 -69.52,-31.11 -69.52,-69.52 0,-38.35 31.06,-69.52 69.52,-69.52l69.57 0 0 -1251.59c0,-291.19 -223.56,-486.79 -556.3,-486.79l-208.61 0c-38.41,0 -69.52,-31.11 -69.52,-69.52 0,-38.41 31.11,-69.52 69.52,-69.52l208.61 0c409.4,0 695.34,257.35 695.34,625.82l0 1321.11c0,38.41 -31.06,69.52 -69.52,69.52z"/>
    <path class="fil0" d="M8927.48 8823.23c-38.41,0 -69.52,-31.11 -69.52,-69.52l0 -2225.11c0,-38.35 31.11,-69.52 69.52,-69.52l69.57 0c38.46,0 69.52,31.17 69.52,69.52 0,38.41 -31.06,69.57 -69.52,69.57l0 2155.54c0,38.41 -31.11,69.52 -69.57,69.52z"/>
    <path class="fil0" d="M8440.75 8823.23c-38.41,0 -69.52,-31.11 -69.52,-69.52l0 -1112.56c0,-38.35 31.11,-69.52 69.52,-69.52 38.46,0 69.57,31.17 69.57,69.52l0 1112.56c0,38.41 -31.11,69.52 -69.57,69.52z"/>
    <path class="fil0" d="M8510.32 4651.18c-153.83,0 -208.61,143.65 -208.61,278.13 0,134.47 54.78,278.18 208.61,278.18 153.78,0 208.61,-143.71 208.61,-278.18 0,-134.47 -54.83,-278.13 -208.61,-278.13zm0 695.34c-207.93,0 -347.7,-167.63 -347.7,-417.22 0,-249.53 139.77,-417.16 347.7,-417.16 207.87,0 347.64,167.63 347.64,417.16 0,249.58 -139.77,417.22 -347.64,417.22z"/>
    <path class="fil0" d="M4338.21 7432.54l-139.04 0c-38.46,0 -69.57,-31.17 -69.57,-69.52l0 -1342.2c0,-410.19 339.09,-743.82 755.84,-743.82l356.72 0c38.46,0 69.57,31.17 69.57,69.52 0,38.41 -31.11,69.52 -69.57,69.52l-356.72 0c-340.09,0 -616.75,271.36 -616.75,604.78l0 1272.69 69.52 0c38.46,0 69.57,31.11 69.57,69.52 0,38.35 -31.11,69.52 -69.57,69.52z"/>
    <path class="fil0" d="M4546.82 8823.23c-38.46,0 -69.52,-31.11 -69.52,-69.52l0 -2433.72c-38.46,0 -69.52,-31.11 -69.52,-69.52 0,-38.35 31.06,-69.52 69.52,-69.52l69.52 0c38.46,0 69.57,31.17 69.57,69.52l0 2503.24c0,38.41 -31.11,69.52 -69.57,69.52z"/>
    <path class="fil0" d="M5035.18 8823.23c-38.41,0 -69.52,-31.11 -69.52,-69.52l0 -1321.17c0,-38.35 31.11,-69.52 69.52,-69.52 38.46,0 69.52,31.17 69.52,69.52l0 1321.17c0,38.41 -31.06,69.52 -69.52,69.52z"/>
    <path class="fil0" d="M5035.18 4303.53c-205.04,0 -278.18,179.59 -278.18,347.64 0,168.05 73.14,347.64 278.18,347.64 205.09,0 278.13,-179.59 278.13,-347.64 0,-168.05 -73.03,-347.64 -278.13,-347.64zm0 834.38c-249.48,0 -417.22,-195.6 -417.22,-486.73 0,-291.14 167.74,-486.73 417.22,-486.73 249.53,0 417.22,195.6 417.22,486.73 0,291.14 -167.68,486.73 -417.22,486.73z"/>
    <path class="fil0" d="M3364.75 7502.06l-139.09 0c-38.46,0 -69.52,-31.11 -69.52,-69.52l0 -1321.11c0,-368.47 285.94,-625.82 695.34,-625.82l208.61 0c38.46,0 69.52,31.11 69.52,69.52 0,38.41 -31.06,69.52 -69.52,69.52l-208.61 0c-332.69,0 -556.25,195.6 -556.25,486.79l0 1251.59 69.52 0c38.46,0 69.57,31.17 69.57,69.52 0,38.41 -31.11,69.52 -69.57,69.52z"/>
    <path class="fil0" d="M3573.35 8823.23c-38.46,0 -69.52,-31.11 -69.52,-69.52l0 -2155.54c-38.46,0 -69.52,-31.17 -69.52,-69.57 0,-38.35 31.06,-69.52 69.52,-69.52l69.52 0c38.46,0 69.52,31.17 69.52,69.52l0 2225.11c0,38.41 -31.06,69.52 -69.52,69.52z"/>
    <path class="fil0" d="M4060.09 8823.23c-38.46,0 -69.52,-31.11 -69.52,-69.52l0 -1112.56c0,-38.35 31.06,-69.52 69.52,-69.52 38.46,0 69.52,31.17 69.52,69.52l0 1112.56c0,38.41 -31.06,69.52 -69.52,69.52z"/>
    <path class="fil0" d="M3990.57 4651.18c-153.83,0 -208.61,143.65 -208.61,278.13 0,134.47 54.78,278.18 208.61,278.18 153.78,0 208.61,-143.71 208.61,-278.18 0,-134.47 -54.83,-278.13 -208.61,-278.13zm0 695.34c-207.93,0 -347.7,-167.63 -347.7,-417.22 0,-249.53 139.77,-417.16 347.7,-417.16 207.93,0 347.64,167.63 347.64,417.16 0,249.58 -139.72,417.22 -347.64,417.22z"/>
    <path class="fil0" d="M6285.2 3816.75c-256.56,0 -347.64,224.77 -347.64,417.22 0,192.5 91.08,417.22 347.64,417.22 256.56,0 347.64,-224.72 347.64,-417.22 0,-192.45 -91.08,-417.22 -347.64,-417.22zm0 973.52c-291.14,0 -486.73,-223.56 -486.73,-556.3 0,-332.69 195.6,-556.25 486.73,-556.25 291.14,0 486.73,223.56 486.73,556.25 0,332.74 -195.6,556.3 -486.73,556.3z"/>
    <path class="fil0" d="M6910.97 8823.23l-417.16 0c-37.2,0 -67.89,-29.33 -69.47,-66.53l-66.63 -1532.76 -145.02 0 -66.63 1532.76c-1.63,37.2 -32.27,66.53 -69.47,66.53l-417.22 0c-38.46,0 -69.52,-31.11 -69.52,-69.52l0 -2294.63c0,-38.41 31.06,-69.52 69.52,-69.52 38.46,0 69.52,31.11 69.52,69.52l0 2225.11 281.17 0 66.58 -1532.76c1.63,-37.2 32.27,-66.53 69.47,-66.53l278.18 0c37.15,0 67.84,29.33 69.41,66.53l66.63 1532.76 281.12 0 0 -2225.11c0,-38.41 31.11,-69.52 69.52,-69.52 38.46,0 69.57,31.11 69.57,69.52l0 2294.63c0,38.41 -31.11,69.52 -69.57,69.52z"/>
    <path class="fil0" d="M6354.72 5068.39l-139.04 0c-38.46,0 -69.57,-31.17 -69.57,-69.57 0,-38.35 31.11,-69.52 69.57,-69.52l139.04 0c38.46,0 69.57,31.17 69.57,69.52 0,38.41 -31.11,69.57 -69.57,69.57z"/>
    <path class="fil0" d="M6285.2 5833.25c-38.46,0 -69.52,-31.17 -69.52,-69.52l0 -764.91c0,-38.35 31.06,-69.52 69.52,-69.52 38.46,0 69.52,31.17 69.52,69.52l0 764.91c0,38.35 -31.06,69.52 -69.52,69.52z"/>
    <path class="fil0" d="M6386.46 6275.65c50.68,23.51 159.39,50 206.82,50l516.75 0c49.84,0 103.99,-23.61 131.74,-57.4 21.2,-25.76 17.1,-46.28 15.79,-53.04l-109.03 -808.36c-39.72,-194.18 -206.77,-338.46 -396.44,-338.46l-4.77 0 -337.47 749.23c-26.55,49.58 -73.51,77.6 -124.66,77.6 -51.21,0 -98.11,-28.02 -122.46,-73.14l-339.67 -753.68 -40.35 0c-210.86,0 -428.55,160.34 -465.75,343.08l-143.71 802.48c-3.1,21.2 2.99,41.45 18.84,59.92 26.76,30.9 78.39,51.78 128.39,51.78l671.05 0 196.86 -16.21c-155.14,-98.17 -431.75,-247.17 -647.44,-226.13 -22.35,2.52 -44.07,-6.4 -58.82,-23.03 -14.8,-16.58 -20.72,-39.35 -15.95,-61.02l76.65 -350.11c8.18,-37.57 45.12,-61.18 82.79,-53.1 37.57,8.24 61.28,45.38 52.99,82.84l-57.92 264.54c334.63,20.04 712.24,292.5 765.75,332.22zm723.57 189.04l-516.75 0c-50.05,0 -124.29,-15.27 -187.15,-34.31 -2.94,0.68 -5.93,1.1 -8.92,1.31l-399.95 32.79 -676.77 0.21c-90.82,0 -180.38,-38.3 -233.58,-99.95 -42.08,-48.69 -60.13,-110.18 -50.89,-173.19l144.39 -806.2c50.53,-247.91 326.19,-456.04 602.32,-456.04l85.26 0c27.39,0 52.15,16 63.43,40.98l355.93 790.25 351.63 -790.25c11.28,-24.97 35.99,-40.98 63.43,-40.98l49.69 0c255.46,0 479.81,191.08 533.48,454.41l109.13 808.77c10.97,54.88 -4.88,114.64 -45.44,164.12 -54.04,65.69 -147.9,108.08 -239.25,108.08z"/>
    <path class="fil0" d="M5547.2 6063.58c-14.01,0 -28.33,-4.25 -40.61,-13.17 -31.22,-22.46 -38.14,-65.9 -15.74,-97.06l84.1 -116.58c37.36,-51.89 108.55,-100.37 188.57,-70.62l273.4 51.26c74.45,-8.39 485,-49.32 772.21,40.98l-20.36 -206.46c-3.78,-38.2 24.19,-72.25 62.38,-76.02 39.61,-3.73 72.3,24.24 75.97,62.38l31.74 321.25c2.52,25.6 -9.18,50.42 -30.64,64.69 -21.51,14.32 -48.95,15.48 -71.46,3.41 -256.93,-138.35 -808.09,-71.67 -813.55,-70.94 -7.24,0.89 -14.43,0.68 -21.51,-0.63l-290.46 -54.46c-5.04,-1 -10.07,-2.47 -14.85,-4.56 -4.88,-2.1 -19.41,8.34 -28.59,20.99l-84.1 116.74c-13.64,18.78 -34.94,28.8 -56.51,28.8z"/>
   </g>
   <g>
    <g>
     <path class="fil0" d="M2207.01 1307.63c-211.44,0 -383.43,-165.38 -383.43,-368.68 0,-203.31 171.99,-368.74 383.43,-368.74 211.44,0 383.48,165.43 383.48,368.74 0,203.31 -172.04,368.68 -383.48,368.68zm0 -519.58l0 0c-91.29,0 -165.59,67.68 -165.59,150.89 0,83.16 74.29,150.84 165.59,150.84 91.34,0 165.64,-67.68 165.64,-150.84 0,-83.21 -74.29,-150.89 -165.64,-150.89z"/>
    </g>
    <g>
     <g>
      <path class="fil0" d="M889.31 824.1l-619.74 0c-60.18,0 -108.92,-48.74 -108.92,-108.92 0,-60.18 48.74,-108.92 108.92,-108.92l619.74 0c60.18,0 108.92,48.74 108.92,108.92 0,60.18 -48.74,108.92 -108.92,108.92z"/>
     </g>
     <g>
      <path class="fil0" d="M579.44 1133.96c-60.18,0 -108.92,-48.79 -108.92,-108.92l0 -619.74c0,-60.18 48.74,-108.92 108.92,-108.92 60.18,0 108.92,48.74 108.92,108.92l0 619.74c0,60.13 -48.74,108.92 -108.92,108.92z"/>
     </g>
    </g>
    <g>
     <g>
      <path class="fil0" d="M11718.55 11699.56l-462.34 0c-60.18,0 -108.92,-48.74 -108.92,-108.92 0,-60.13 48.74,-108.92 108.92,-108.92l462.34 0c60.13,0 108.92,48.79 108.92,108.92 0,60.18 -48.79,108.92 -108.92,108.92z"/>
     </g>
     <g>
      <path class="fil0" d="M11487.38 11930.73c-60.18,0 -108.92,-48.74 -108.92,-108.92l0 -462.28c0,-60.18 48.74,-108.92 108.92,-108.92 60.18,0 108.92,48.74 108.92,108.92l0 462.28c0,60.18 -48.74,108.92 -108.92,108.92z"/>
     </g>
    </g>
    <g>
     <path class="fil0" d="M10165.8 11091.21c-31.32,0 -62.38,-13.48 -83.95,-39.45 -38.41,-46.33 -31.95,-115.01 14.38,-153.36 331.69,-274.77 634.74,-585.74 900.75,-924.36 37.15,-47.27 105.62,-55.51 152.94,-18.36 47.33,37.2 55.51,105.67 18.36,152.94 -275.56,350.79 -589.46,672.94 -933.07,957.52 -20.3,16.84 -44.96,25.08 -69.41,25.08z"/>
    </g>
    <g>
     <path class="fil0" d="M11405.06 9699.37c-20.36,0 -40.92,-5.67 -59.23,-17.58 -50.47,-32.79 -64.8,-100.21 -32.06,-150.68 24.87,-38.25 49.58,-77.28 73.45,-116 31.58,-51.21 98.69,-67.1 149.9,-35.47 51.21,31.58 67.1,98.69 35.52,149.9 -24.76,40.08 -50.37,80.54 -76.13,120.2 -20.83,32.16 -55.82,49.63 -91.45,49.63z"/>
    </g>
    <g>
     <path class="fil0" d="M11479.83 9581.27c-19.52,0 -39.3,-5.25 -57.14,-16.26 -51.16,-31.58 -67.05,-98.74 -35.47,-149.9 58.92,-95.38 115.85,-193.65 169.26,-292.08 28.65,-52.83 94.75,-72.51 147.69,-43.81 52.83,28.7 72.46,94.81 43.76,147.69 -55.3,102 -114.27,203.78 -175.29,302.63 -20.62,33.37 -56.3,51.73 -92.81,51.73z"/>
    </g>
    <g>
     <path class="fil0" d="M12218.14 7816.39c-8.55,0 -17.21,-1 -25.87,-3.1 -58.45,-14.22 -94.28,-73.14 -80.06,-131.59 113.33,-465.85 170.78,-947.39 170.78,-1431.29 0,-52.78 -0.68,-106.66 -2.1,-160.23 -1.57,-60.13 45.96,-110.13 106.04,-111.7 60.65,-1.42 110.18,45.91 111.75,106.09 1.42,55.4 2.15,111.18 2.15,165.85 0,501.27 -59.55,1000.12 -176.97,1482.76 -12.12,49.84 -56.66,83.21 -105.72,83.21z"/>
    </g>
    <g>
     <path class="fil0" d="M12314.52 5382.72c-52.57,0 -98.85,-38.2 -107.4,-91.76 -18.78,-117.42 -41.34,-235.89 -67.1,-352.05 -13.01,-58.71 24.03,-116.9 82.79,-129.91 58.66,-13.06 116.9,24.03 129.91,82.74 26.71,120.41 50.05,243.18 69.52,364.85 9.5,59.39 -31.01,115.27 -90.4,124.71 -5.82,0.94 -11.6,1.42 -17.31,1.42z"/>
    </g>
    <g>
     <path class="fil0" d="M11544.94 3245.02c-37.3,0 -73.66,-19.15 -93.97,-53.62 -336.73,-571.21 -762.76,-1080.66 -1266.34,-1514.24 -45.59,-39.25 -50.74,-108.03 -11.49,-153.62 39.3,-45.59 108.08,-50.74 153.68,-11.49 521.57,449.17 962.97,976.93 1311.83,1568.76 30.59,51.78 13.33,118.57 -38.51,149.11 -17.37,10.28 -36.41,15.11 -55.2,15.11z"/>
    </g>
    <g>
     <path class="fil0" d="M9572.19 1192.88c-20.25,0 -40.66,-5.61 -58.92,-17.37 -126.34,-81.43 -257.3,-158.97 -389.15,-230.54 -52.89,-28.7 -72.46,-94.81 -43.76,-147.69 28.7,-52.89 94.75,-72.46 147.69,-43.76 136.62,74.14 272.25,154.51 403.21,238.88 50.58,32.58 65.16,100 32.58,150.53 -20.83,32.32 -55.93,49.95 -91.66,49.95z"/>
    </g>
    <g>
     <path class="fil0" d="M7643.88 376.66c-8.18,0 -16.42,-0.94 -24.71,-2.89 -446.02,-103.46 -906.52,-155.88 -1368.75,-155.88 -350.74,0 -702.27,30.33 -1044.77,90.09 -59.39,10.39 -115.69,-29.28 -126.08,-88.56 -10.34,-59.23 29.33,-115.69 88.56,-126.03 354.89,-61.96 719,-93.39 1082.28,-93.39 478.81,0 955.84,54.36 1417.97,161.6 58.61,13.59 95.12,72.09 81.53,130.69 -11.7,50.32 -56.51,84.37 -106.04,84.37z"/>
    </g>
    <g>
     <path class="fil0" d="M3802.37 725.25c-42.08,0 -82.11,-24.5 -99.95,-65.53 -24.03,-55.14 1.26,-119.31 56.4,-143.34 151.26,-65.79 306.98,-126.29 462.91,-179.75 56.98,-19.57 118.89,10.81 138.35,67.68 19.52,56.93 -10.76,118.89 -67.68,138.41 -150.47,51.57 -300.74,109.92 -446.65,173.46 -14.17,6.14 -28.91,9.08 -43.39,9.08z"/>
    </g>
    <g>
     <path class="fil0" d="M982.54 3200.26c-19.1,0 -38.41,-5.04 -55.98,-15.58 -51.57,-31.01 -68.26,-97.96 -37.25,-149.48 286.68,-476.98 636.21,-914.34 1039,-1300.02 43.44,-41.61 112.38,-40.08 153.99,3.36 41.61,43.44 40.14,112.38 -3.31,153.99 -388.83,372.3 -726.3,794.5 -1002.95,1254.9 -20.46,34 -56.51,52.83 -93.5,52.83z"/>
    </g>
    <g>
     <path class="fil0" d="M491.4 4221.05c-12.59,0 -25.39,-2.2 -37.88,-6.87 -56.4,-20.93 -85.15,-83.63 -64.22,-140.03 54.04,-145.39 114.33,-290.67 179.17,-431.8 25.13,-54.67 89.88,-78.6 144.49,-53.46 54.67,25.13 78.6,89.77 53.46,144.44 -62.59,136.2 -120.78,276.39 -172.88,416.69 -16.32,43.91 -57.92,71.04 -102.15,71.04z"/>
    </g>
    <g>
     <path class="fil0" d="M138.46 6966.64c-55.4,0 -102.78,-42.03 -108.29,-98.27 -20.04,-203.94 -30.17,-411.86 -30.17,-617.95 0,-431.8 44.28,-863.18 131.64,-1282.13 12.33,-58.87 69.99,-96.7 128.86,-84.37 58.92,12.22 96.7,69.94 84.42,128.86 -84.31,404.36 -127.07,820.74 -127.07,1237.64 0,199.01 9.81,399.74 29.12,596.65 5.88,59.86 -37.88,113.17 -97.75,119.05 -3.62,0.37 -7.24,0.52 -10.76,0.52z"/>
    </g>
    <g>
     <path class="fil0" d="M365.17 8120.59c-46.96,0 -90.24,-30.54 -104.36,-77.81 -62.7,-209.87 -114.85,-425.61 -154.99,-641.25 -11.02,-59.13 27.96,-116 87.15,-127.02 58.97,-11.07 116,28.02 126.97,87.15 38.77,208.08 89.09,416.27 149.64,618.79 17.21,57.61 -15.58,118.31 -73.19,135.52 -10.39,3.1 -20.93,4.62 -31.22,4.62z"/>
    </g>
    <g>
     <path class="fil0" d="M2544.64 11257.32c-22.88,0 -46.01,-7.19 -65.69,-22.09 -724.25,-548.85 -1331.34,-1262.35 -1755.64,-2063.41 -28.12,-53.15 -7.87,-119.05 45.33,-147.22 53.04,-28.17 119.05,-7.92 147.22,45.28 409.5,773.2 995.5,1461.93 1694.68,1991.69 47.95,36.36 57.35,104.67 21.04,152.63 -21.46,28.28 -53.99,43.13 -86.94,43.13z"/>
    </g>
    <g>
     <path class="fil0" d="M3559.29 11881.46c-16.05,0 -32.32,-3.57 -47.69,-11.07 -162.54,-79.33 -323.72,-167 -479.13,-260.5 -51.52,-31.01 -68.21,-97.9 -37.15,-149.48 30.96,-51.52 97.9,-68.15 149.43,-37.15 150,90.19 305.57,174.77 462.39,251.37 54.09,26.39 76.5,91.61 50.11,145.65 -18.89,38.67 -57.61,61.18 -97.96,61.18z"/>
    </g>
    <g>
     <path class="fil0" d="M6250.42 12500.83c-355.3,0 -711.61,-30.06 -1059.04,-89.35 -59.29,-10.13 -99.16,-66.42 -89.04,-125.71 10.13,-59.29 66.42,-99.16 125.66,-89.04 335.37,57.24 679.39,86.26 1022.42,86.26 519.11,0 1034.49,-66 1531.82,-196.17 58.13,-15.27 117.74,19.62 132.95,77.81 15.22,58.19 -19.62,117.74 -77.81,132.95 -515.33,134.89 -1049.28,203.26 -1586.96,203.26z"/>
    </g>
    <g>
     <path class="fil0" d="M8537.81 12060.79c-43.18,0 -84.05,-25.81 -101.1,-68.36 -22.46,-55.82 4.62,-119.26 60.49,-141.66 148.11,-59.5 295.7,-125.76 438.57,-196.91 53.88,-26.81 119.26,-4.93 146.07,48.95 26.86,53.83 4.88,119.26 -48.95,146.07 -148.11,73.72 -301,142.39 -454.52,204.04 -13.33,5.35 -27.02,7.87 -40.56,7.87z"/>
    </g>
    <g>
     <path class="fil0" d="M11646.57 1295.98c15.22,15.22 35.15,22.82 55.14,22.82 19.94,0 39.93,-7.61 55.14,-22.82 30.43,-30.43 30.43,-79.85 0,-110.29l-101.73 -101.73 101.73 -101.73c30.43,-30.43 30.43,-79.85 0,-110.29 -30.43,-30.43 -79.85,-30.43 -110.29,0l-101.73 101.73 -101.73 -101.73c-30.43,-30.43 -79.85,-30.43 -110.29,0 -30.48,30.43 -30.48,79.85 0,110.29l101.73 101.73 -101.73 101.73c-30.48,30.43 -30.48,79.85 0,110.29 15.22,15.22 35.21,22.82 55.14,22.82 19.94,0 39.93,-7.61 55.14,-22.82l101.73 -101.73 101.73 101.73z"/>
    </g>
    <g>
     <path class="fil0" d="M831.02 11148.29c-75.03,0 -135.84,60.81 -135.84,135.84 0,75.03 60.81,135.84 135.84,135.84 75.03,0 135.84,-60.81 135.84,-135.84 0,-75.03 -60.81,-135.84 -135.84,-135.84z"/>
    </g>
    <g>
     <path class="fil0" d="M10183.06 9284.04c-22.72,0 -45.54,-7.03 -65.11,-21.67 -48.16,-35.99 -58.08,-104.25 -22.09,-152.42 52.41,-70.2 103.57,-142.76 152.05,-215.8 33.32,-50.05 100.89,-63.75 151,-30.43 50.16,33.32 63.75,100.89 30.48,151 -50.74,76.29 -104.2,152.21 -158.97,225.55 -21.41,28.65 -54.2,43.76 -87.36,43.76z"/>
    </g>
    <g>
     <path class="fil0" d="M10591.52 8637.55c-17.16,0 -34.52,-4.09 -50.74,-12.64 -53.2,-28.02 -73.61,-93.92 -45.54,-147.12 154.57,-292.97 278.7,-602.79 369.05,-920.69 16.42,-57.87 76.86,-91.4 134.52,-75.03 57.87,16.47 91.45,76.71 75.03,134.58 -94.49,332.48 -224.3,656.36 -385.89,962.76 -19.52,36.99 -57.35,58.13 -96.43,58.13z"/>
    </g>
    <g>
     <path class="fil0" d="M10969.12 7695.82c-9.86,0 -19.88,-1.36 -29.85,-4.14 -57.87,-16.47 -91.45,-76.71 -74.97,-134.58 45.23,-159.29 82.58,-323.04 111.02,-486.58 10.28,-59.29 66.58,-98.95 125.97,-88.67 59.29,10.34 99,66.69 88.67,125.97 -29.7,171.04 -68.78,342.24 -116.11,508.82 -13.64,47.9 -57.29,79.17 -104.72,79.17z"/>
    </g>
    <g>
     <path class="fil0" d="M11143.05 6004.71c-56.72,0 -104.51,-43.86 -108.55,-101.31 -7.03,-100.11 -17.26,-201 -30.43,-299.85 -7.97,-59.65 33.89,-114.43 93.55,-122.4 59.81,-7.92 114.43,33.95 122.35,93.6 13.8,103.31 24.5,208.77 31.85,313.44 4.2,60.02 -41.03,112.07 -101.05,116.27 -2.57,0.21 -5.14,0.26 -7.71,0.26z"/>
    </g>
    <g>
     <path class="fil0" d="M10968.96 5009.11c-47.43,0 -91.08,-31.27 -104.67,-79.17 -114.85,-404.1 -283.06,-792.04 -500.06,-1153.11 -30.96,-51.57 -14.32,-118.47 37.25,-149.48 51.52,-30.96 118.47,-14.27 149.48,37.25 226.87,377.55 402.79,783.22 522.88,1205.79 16.42,57.87 -17.16,118.1 -75.03,134.58 -9.97,2.78 -19.99,4.14 -29.85,4.14z"/>
    </g>
    <g>
     <path class="fil0" d="M9572.3 2743.75c-26.39,0 -52.83,-9.55 -73.77,-28.8 -85.47,-78.7 -174.87,-155.25 -265.64,-227.44 -47.12,-37.46 -54.93,-105.98 -17.52,-153.05 37.46,-47.12 105.98,-54.93 153.1,-17.47 94.91,75.45 188.36,155.46 277.65,237.73 44.28,40.71 47.12,109.66 6.35,153.88 -21.46,23.35 -50.79,35.15 -80.17,35.15z"/>
    </g>
    <g>
     <path class="fil0" d="M8761 2138.02c-18.99,0 -38.25,-4.98 -55.72,-15.43 -361.29,-215.69 -749.33,-382.69 -1153.27,-496.34 -57.87,-16.26 -91.61,-76.39 -75.34,-134.31 16.26,-57.92 76.39,-91.66 134.37,-75.34 422.41,118.84 828.14,293.45 1205.9,518.95 51.63,30.85 68.57,97.69 37.72,149.37 -20.41,34.16 -56.56,53.1 -93.65,53.1z"/>
    </g>
    <g>
     <path class="fil0" d="M4518.23 1762.25c-44.02,0 -85.42,-26.86 -101.89,-70.46 -21.25,-56.3 7.14,-119.15 63.43,-140.4 171.72,-64.85 348.9,-120.73 526.71,-166.11 58.19,-14.85 117.58,20.3 132.48,78.6 14.85,58.29 -20.36,117.63 -78.6,132.48 -169.99,43.39 -339.46,96.85 -503.68,158.82 -12.64,4.83 -25.66,7.08 -38.46,7.08z"/>
    </g>
    <g>
     <path class="fil0" d="M2829.01 2837.93c-28.33,0 -56.72,-11.02 -78.02,-32.95 -41.97,-43.08 -41.08,-112.07 2.05,-153.99 384.69,-374.56 823.62,-683.27 1304.59,-917.54 54.15,-26.34 119.26,-3.88 145.65,50.21 26.34,54.09 3.83,119.26 -50.26,145.65 -460.08,224.09 -879.97,519.42 -1247.97,877.77 -21.2,20.62 -48.64,30.85 -76.02,30.85z"/>
    </g>
    <g>
     <path class="fil0" d="M1831.56 4221c-15.9,0 -32.06,-3.46 -47.33,-10.86 -54.15,-26.18 -76.86,-91.29 -50.68,-145.49 35.26,-72.93 72.72,-145.86 111.44,-216.85 28.75,-52.83 94.96,-72.35 147.75,-43.55 52.83,28.8 72.3,94.96 43.55,147.8 -36.99,67.84 -72.88,137.67 -106.56,207.4 -18.84,38.88 -57.71,61.54 -98.17,61.54z"/>
    </g>
    <g>
     <path class="fil0" d="M1372.48 5836.3c-3.78,0 -7.61,-0.16 -11.44,-0.58 -59.81,-6.24 -103.25,-59.86 -97.01,-119.68 43.23,-413.28 137.88,-819.9 281.27,-1208.47 20.83,-56.4 83.37,-85.26 139.93,-64.43 56.45,20.83 85.26,83.47 64.43,139.88 -137.1,371.57 -227.6,760.4 -268.94,1155.69 -5.88,55.98 -53.15,97.59 -108.24,97.59z"/>
    </g>
    <g>
     <path class="fil0" d="M1434.28 7286.69c-51.16,0 -96.8,-36.25 -106.82,-88.3 -16.16,-83.84 -30.33,-169.05 -42.13,-253.26 -8.34,-59.6 33.21,-114.64 92.76,-122.98 59.65,-8.24 114.64,33.21 122.98,92.76 11.28,80.54 24.82,162.07 40.29,242.19 11.39,59.08 -27.28,116.21 -86.36,127.6 -6.93,1.36 -13.85,1.99 -20.72,1.99z"/>
    </g>
    <g>
     <path class="fil0" d="M2171.23 9076.85c-35.15,0 -69.62,-16.95 -90.61,-48.37 -269,-401.95 -477.71,-839.26 -620.31,-1299.71 -17.79,-57.45 14.32,-118.47 71.77,-136.26 57.45,-17.79 118.52,14.32 136.31,71.77 136.41,440.35 336,858.57 593.29,1243.04 33.42,50 20.04,117.63 -29.96,151.1 -18.63,12.43 -39.66,18.42 -60.49,18.42z"/>
    </g>
    <g>
     <path class="fil0" d="M3136.09 10141.98c-24.34,0 -48.85,-8.13 -69.1,-24.82 -67.42,-55.4 -134.47,-113.59 -199.22,-172.83 -44.39,-40.61 -47.48,-109.5 -6.87,-153.88 40.61,-44.39 109.5,-47.43 153.88,-6.87 61.96,56.66 126.08,112.33 190.56,165.32 46.49,38.25 53.2,106.87 14.95,153.36 -21.51,26.18 -52.73,39.72 -84.21,39.72z"/>
    </g>
    <g>
     <path class="fil0" d="M4617.49 10978.98c-12.07,0 -24.29,-2.05 -36.25,-6.24 -409.08,-144.39 -798.65,-342.19 -1157.99,-587.94 -49.63,-33.95 -62.38,-101.73 -28.38,-151.42 33.95,-49.63 101.68,-62.38 151.37,-28.38 343.71,235.05 716.33,424.25 1107.52,562.29 56.72,20.04 86.47,82.27 66.42,138.98 -15.74,44.75 -57.82,72.72 -102.68,72.72z"/>
    </g>
    <g>
     <path class="fil0" d="M6279.43 11257.21c-59.86,0 -108.55,-48.32 -108.92,-108.24 -0.31,-60.18 48.16,-109.24 108.29,-109.6 118.36,-0.68 237.88,-5.72 355.3,-15.01 59.65,-4.77 112.49,39.98 117.21,99.95 4.72,59.97 -40.03,112.44 -100,117.21 -122.72,9.71 -247.64,15.01 -371.2,15.69 -0.21,0 -0.47,0 -0.68,0z"/>
    </g>
    <g>
     <path class="fil0" d="M7230.91 11159.31c-50.74,0 -96.17,-35.62 -106.66,-87.3 -11.91,-58.97 26.18,-116.42 85.1,-128.39 528.55,-107.29 1031.86,-302.1 1495.88,-579.18 51.68,-30.8 118.52,-13.96 149.37,37.72 30.85,51.63 13.96,118.52 -37.67,149.32 -485.21,289.72 -1011.51,493.45 -1564.24,605.62 -7.29,1.47 -14.59,2.2 -21.77,2.2z"/>
    </g>
    <g>
     <path class="fil0" d="M9779.43 11848.67c-192.76,0 -349.64,-151.05 -349.64,-336.73 0,-185.68 156.88,-336.73 349.64,-336.73 192.82,0 349.64,151.05 349.64,336.73 0,185.68 -156.82,336.73 -349.64,336.73zm0 -455.62l0 0c-72.67,0 -131.8,53.36 -131.8,118.89 0,65.53 59.13,118.89 131.8,118.89 72.67,0 131.8,-53.36 131.8,-118.89 0,-65.53 -59.13,-118.89 -131.8,-118.89z"/>
    </g>
   </g>
  </g>
 </g>
</svg>
