<?xml version="1.0" encoding="UTF-8"?>
<!DOCTYPE svg PUBLIC "-//W3C//DTD SVG 1.1//EN" "http://www.w3.org/Graphics/SVG/1.1/DTD/svg11.dtd">
<!-- Creator: CorelDRAW 2017 -->
<svg xmlns="http://www.w3.org/2000/svg" xml:space="preserve" width="23.8262mm" height="23.8262mm" version="1.1" style="shape-rendering:geometricPrecision; text-rendering:geometricPrecision; image-rendering:optimizeQuality; fill-rule:evenodd; clip-rule:evenodd"
viewBox="0 0 1087.66 1087.66"
 xmlns:xlink="http://www.w3.org/1999/xlink">
 <defs>
  <style type="text/css">
   <![CDATA[
    .fil0 {fill:#999999;fill-rule:nonzero}
   ]]>
  </style>
 </defs>
 <g id="Layer_x0020_1">
  <metadata id="CorelCorpID_0Corel-Layer"/>
  <g id="_2530070292912">
   <g>
    <g>
     <path class="fil0" d="M192.03 113.77c-18.4,0 -33.36,-14.39 -33.36,-32.08 0,-17.69 14.96,-32.08 33.36,-32.08 18.4,0 33.37,14.39 33.37,32.08 0,17.69 -14.97,32.08 -33.37,32.08zm0 -45.21l0 0c-7.94,0 -14.41,5.89 -14.41,13.13 0,7.24 6.46,13.12 14.41,13.12 7.95,0 14.41,-5.89 14.41,-13.12 0,-7.24 -6.46,-13.13 -14.41,-13.13z"/>
    </g>
    <g>
     <g>
      <path class="fil0" d="M77.38 71.7l-53.92 0c-5.24,0 -9.48,-4.24 -9.48,-9.48 0,-5.24 4.24,-9.48 9.48,-9.48l53.92 0c5.24,0 9.48,4.24 9.48,9.48 0,5.24 -4.24,9.48 -9.48,9.48z"/>
     </g>
     <g>
      <path class="fil0" d="M50.42 98.66c-5.24,0 -9.48,-4.25 -9.48,-9.48l0 -53.92c0,-5.24 4.24,-9.48 9.48,-9.48 5.24,0 9.48,4.24 9.48,9.48l0 53.92c0,5.23 -4.24,9.48 -9.48,9.48z"/>
     </g>
    </g>
    <g>
     <g>
      <path class="fil0" d="M1019.59 1017.94l-40.23 0c-5.24,0 -9.48,-4.24 -9.48,-9.48 0,-5.23 4.24,-9.48 9.48,-9.48l40.23 0c5.23,0 9.48,4.25 9.48,9.48 0,5.24 -4.25,9.48 -9.48,9.48z"/>
     </g>
     <g>
      <path class="fil0" d="M999.48 1038.05c-5.24,0 -9.48,-4.24 -9.48,-9.48l0 -40.22c0,-5.24 4.24,-9.48 9.48,-9.48 5.24,0 9.48,4.24 9.48,9.48l0 40.22c0,5.24 -4.24,9.48 -9.48,9.48z"/>
     </g>
    </g>
    <g>
     <path class="fil0" d="M884.49 965.01c-2.73,0 -5.43,-1.17 -7.3,-3.43 -3.34,-4.03 -2.78,-10.01 1.25,-13.34 28.86,-23.91 55.23,-50.96 78.37,-80.43 3.23,-4.11 9.19,-4.83 13.31,-1.6 4.12,3.24 4.83,9.19 1.6,13.31 -23.98,30.52 -51.29,58.55 -81.18,83.31 -1.77,1.47 -3.91,2.18 -6.04,2.18z"/>
    </g>
    <g>
     <path class="fil0" d="M992.32 843.91c-1.77,0 -3.56,-0.49 -5.15,-1.53 -4.39,-2.85 -5.64,-8.72 -2.79,-13.11 2.16,-3.33 4.31,-6.72 6.39,-10.09 2.75,-4.46 8.59,-5.84 13.04,-3.09 4.46,2.75 5.84,8.59 3.09,13.04 -2.15,3.49 -4.38,7.01 -6.62,10.46 -1.81,2.8 -4.86,4.32 -7.96,4.32z"/>
    </g>
    <g>
     <path class="fil0" d="M998.82 833.64c-1.7,0 -3.42,-0.46 -4.97,-1.42 -4.45,-2.75 -5.83,-8.59 -3.09,-13.04 5.13,-8.3 10.08,-16.85 14.73,-25.41 2.49,-4.6 8.24,-6.31 12.85,-3.81 4.6,2.5 6.3,8.25 3.81,12.85 -4.81,8.87 -9.94,17.73 -15.25,26.33 -1.79,2.9 -4.9,4.5 -8.08,4.5z"/>
    </g>
    <g>
     <path class="fil0" d="M1063.06 680.08c-0.74,0 -1.5,-0.09 -2.25,-0.27 -5.09,-1.24 -8.2,-6.36 -6.97,-11.45 9.86,-40.53 14.86,-82.43 14.86,-124.53 0,-4.59 -0.06,-9.28 -0.18,-13.94 -0.14,-5.23 4,-9.58 9.23,-9.72 5.28,-0.12 9.59,3.99 9.72,9.23 0.12,4.82 0.19,9.67 0.19,14.43 0,43.61 -5.18,87.02 -15.4,129.01 -1.05,4.34 -4.93,7.24 -9.2,7.24z"/>
    </g>
    <g>
     <path class="fil0" d="M1071.45 468.33c-4.57,0 -8.6,-3.32 -9.34,-7.98 -1.63,-10.22 -3.6,-20.52 -5.84,-30.63 -1.13,-5.11 2.09,-10.17 7.2,-11.3 5.1,-1.14 10.17,2.09 11.3,7.2 2.32,10.48 4.35,21.16 6.05,31.74 0.83,5.17 -2.7,10.03 -7.87,10.85 -0.51,0.08 -1.01,0.12 -1.51,0.12z"/>
    </g>
    <g>
     <path class="fil0" d="M1004.49 282.34c-3.25,0 -6.41,-1.67 -8.18,-4.67 -29.3,-49.7 -66.37,-94.02 -110.18,-131.75 -3.97,-3.41 -4.41,-9.4 -1,-13.37 3.42,-3.97 9.4,-4.41 13.37,-1 45.38,39.08 83.79,85 114.14,136.49 2.66,4.51 1.16,10.32 -3.35,12.97 -1.51,0.89 -3.17,1.31 -4.8,1.31z"/>
    </g>
    <g>
     <path class="fil0" d="M832.85 103.79c-1.76,0 -3.54,-0.49 -5.13,-1.51 -10.99,-7.08 -22.39,-13.83 -33.86,-20.06 -4.6,-2.5 -6.3,-8.25 -3.81,-12.85 2.5,-4.6 8.24,-6.3 12.85,-3.81 11.89,6.45 23.69,13.44 35.08,20.78 4.4,2.83 5.67,8.7 2.83,13.1 -1.81,2.81 -4.87,4.35 -7.97,4.35z"/>
    </g>
    <g>
     <path class="fil0" d="M665.07 32.77c-0.71,0 -1.43,-0.08 -2.15,-0.25 -38.81,-9 -78.87,-13.56 -119.09,-13.56 -30.52,0 -61.1,2.64 -90.9,7.84 -5.17,0.9 -10.07,-2.55 -10.97,-7.71 -0.9,-5.15 2.55,-10.07 7.71,-10.97 30.88,-5.39 62.56,-8.13 94.17,-8.13 41.66,0 83.16,4.73 123.37,14.06 5.1,1.18 8.28,6.27 7.09,11.37 -1.02,4.38 -4.92,7.34 -9.23,7.34z"/>
    </g>
    <g>
     <path class="fil0" d="M330.83 63.1c-3.66,0 -7.14,-2.13 -8.7,-5.7 -2.09,-4.8 0.11,-10.38 4.91,-12.47 13.16,-5.72 26.71,-10.99 40.28,-15.64 4.96,-1.7 10.34,0.94 12.04,5.89 1.7,4.95 -0.94,10.34 -5.89,12.04 -13.09,4.49 -26.17,9.56 -38.86,15.09 -1.23,0.53 -2.52,0.79 -3.78,0.79z"/>
    </g>
    <g>
     <path class="fil0" d="M85.49 278.44c-1.66,0 -3.34,-0.44 -4.87,-1.36 -4.49,-2.7 -5.94,-8.52 -3.24,-13.01 24.94,-41.5 55.35,-79.55 90.4,-113.11 3.78,-3.62 9.78,-3.49 13.4,0.29 3.62,3.78 3.49,9.78 -0.29,13.4 -33.83,32.39 -63.19,69.13 -87.26,109.18 -1.78,2.96 -4.92,4.6 -8.13,4.6z"/>
    </g>
    <g>
     <path class="fil0" d="M42.76 367.26c-1.1,0 -2.21,-0.19 -3.3,-0.6 -4.91,-1.82 -7.41,-7.28 -5.59,-12.18 4.7,-12.65 9.95,-25.29 15.59,-37.57 2.19,-4.76 7.82,-6.84 12.57,-4.65 4.76,2.19 6.84,7.81 4.65,12.57 -5.45,11.85 -10.51,24.05 -15.04,36.25 -1.42,3.82 -5.04,6.18 -8.89,6.18z"/>
    </g>
    <g>
     <path class="fil0" d="M12.05 606.15c-4.82,0 -8.94,-3.66 -9.42,-8.55 -1.74,-17.74 -2.62,-35.83 -2.62,-53.77 0,-37.57 3.85,-75.1 11.45,-111.55 1.07,-5.12 6.09,-8.41 11.21,-7.34 5.13,1.06 8.41,6.09 7.35,11.21 -7.34,35.18 -11.06,71.41 -11.06,107.68 0,17.31 0.85,34.78 2.53,51.91 0.51,5.21 -3.3,9.85 -8.5,10.36 -0.31,0.03 -0.63,0.05 -0.94,0.05z"/>
    </g>
    <g>
     <path class="fil0" d="M31.77 706.55c-4.09,0 -7.85,-2.66 -9.08,-6.77 -5.46,-18.26 -9.99,-37.03 -13.48,-55.79 -0.96,-5.14 2.43,-10.09 7.58,-11.05 5.13,-0.96 10.09,2.44 11.05,7.58 3.37,18.1 7.75,36.22 13.02,53.84 1.5,5.01 -1.36,10.29 -6.37,11.79 -0.9,0.27 -1.82,0.4 -2.72,0.4z"/>
    </g>
    <g>
     <path class="fil0" d="M221.4 979.46c-1.99,0 -4,-0.63 -5.72,-1.92 -63.01,-47.75 -115.84,-109.83 -152.75,-179.53 -2.45,-4.62 -0.68,-10.36 3.94,-12.81 4.62,-2.45 10.36,-0.69 12.81,3.94 35.63,67.27 86.62,127.2 147.45,173.29 4.17,3.16 4.99,9.11 1.83,13.28 -1.87,2.46 -4.7,3.75 -7.56,3.75z"/>
    </g>
    <g>
     <path class="fil0" d="M309.68 1033.77c-1.4,0 -2.81,-0.31 -4.15,-0.96 -14.14,-6.9 -28.17,-14.53 -41.69,-22.67 -4.48,-2.7 -5.93,-8.52 -3.23,-13.01 2.69,-4.48 8.52,-5.93 13,-3.23 13.05,7.85 26.59,15.21 40.23,21.87 4.71,2.3 6.66,7.97 4.36,12.67 -1.64,3.36 -5.01,5.32 -8.52,5.32z"/>
    </g>
    <g>
     <path class="fil0" d="M543.83 1087.66c-30.91,0 -61.91,-2.62 -92.14,-7.77 -5.16,-0.88 -8.63,-5.78 -7.75,-10.94 0.88,-5.16 5.78,-8.63 10.93,-7.75 29.18,4.98 59.11,7.5 88.96,7.5 45.17,0 90.01,-5.74 133.28,-17.07 5.06,-1.33 10.24,1.71 11.57,6.77 1.32,5.06 -1.71,10.24 -6.77,11.57 -44.84,11.74 -91.29,17.68 -138.08,17.68z"/>
    </g>
    <g>
     <path class="fil0" d="M742.85 1049.37c-3.76,0 -7.31,-2.25 -8.8,-5.95 -1.95,-4.86 0.4,-10.38 5.26,-12.33 12.89,-5.18 25.73,-10.94 38.16,-17.13 4.69,-2.33 10.38,-0.43 12.71,4.26 2.34,4.68 0.42,10.38 -4.26,12.71 -12.89,6.41 -26.19,12.39 -39.55,17.75 -1.16,0.47 -2.35,0.68 -3.53,0.68z"/>
    </g>
    <g>
     <path class="fil0" d="M1013.33 112.76c1.32,1.32 3.06,1.99 4.8,1.99 1.73,0 3.47,-0.66 4.8,-1.99 2.65,-2.65 2.65,-6.95 0,-9.6l-8.85 -8.85 8.85 -8.85c2.65,-2.65 2.65,-6.95 0,-9.6 -2.65,-2.65 -6.95,-2.65 -9.6,0l-8.85 8.85 -8.85 -8.85c-2.65,-2.65 -6.95,-2.65 -9.6,0 -2.65,2.65 -2.65,6.95 0,9.6l8.85 8.85 -8.85 8.85c-2.65,2.65 -2.65,6.95 0,9.6 1.32,1.32 3.06,1.99 4.8,1.99 1.73,0 3.47,-0.66 4.8,-1.99l8.85 -8.85 8.85 8.85z"/>
    </g>
    <g>
     <path class="fil0" d="M72.3 969.98c-6.53,0 -11.82,5.29 -11.82,11.82 0,6.53 5.29,11.82 11.82,11.82 6.53,0 11.82,-5.29 11.82,-11.82 0,-6.53 -5.29,-11.82 -11.82,-11.82z"/>
    </g>
    <g>
     <path class="fil0" d="M886 807.78c-1.98,0 -3.96,-0.61 -5.67,-1.89 -4.19,-3.13 -5.05,-9.07 -1.92,-13.26 4.56,-6.11 9.01,-12.42 13.23,-18.78 2.9,-4.35 8.78,-5.55 13.14,-2.65 4.36,2.9 5.55,8.78 2.65,13.14 -4.41,6.64 -9.07,13.24 -13.83,19.62 -1.86,2.49 -4.72,3.81 -7.6,3.81z"/>
    </g>
    <g>
     <path class="fil0" d="M921.53 751.53c-1.49,0 -3,-0.36 -4.41,-1.1 -4.63,-2.44 -6.4,-8.17 -3.96,-12.8 13.45,-25.49 24.25,-52.45 32.11,-80.11 1.43,-5.04 6.69,-7.95 11.7,-6.53 5.04,1.43 7.96,6.67 6.53,11.71 -8.22,28.93 -19.52,57.11 -33.58,83.77 -1.7,3.22 -4.99,5.06 -8.39,5.06z"/>
    </g>
    <g>
     <path class="fil0" d="M954.39 669.59c-0.86,0 -1.73,-0.12 -2.6,-0.36 -5.04,-1.43 -7.96,-6.67 -6.52,-11.71 3.94,-13.86 7.19,-28.11 9.66,-42.34 0.89,-5.16 5.79,-8.61 10.96,-7.71 5.16,0.9 8.61,5.8 7.71,10.96 -2.58,14.88 -5.98,29.78 -10.1,44.27 -1.19,4.17 -4.98,6.89 -9.11,6.89z"/>
    </g>
    <g>
     <path class="fil0" d="M969.52 522.45c-4.93,0 -9.09,-3.82 -9.44,-8.81 -0.61,-8.71 -1.5,-17.49 -2.65,-26.09 -0.69,-5.19 2.95,-9.96 8.14,-10.65 5.2,-0.69 9.96,2.95 10.65,8.14 1.2,8.99 2.13,18.16 2.77,27.27 0.37,5.22 -3.57,9.75 -8.79,10.12 -0.22,0.02 -0.45,0.02 -0.67,0.02z"/>
    </g>
    <g>
     <path class="fil0" d="M954.37 435.83c-4.13,0 -7.92,-2.72 -9.11,-6.89 -9.99,-35.16 -24.63,-68.91 -43.51,-100.33 -2.69,-4.49 -1.25,-10.31 3.24,-13.01 4.48,-2.69 10.31,-1.24 13.01,3.24 19.74,32.85 35.05,68.15 45.49,104.91 1.43,5.04 -1.49,10.28 -6.53,11.71 -0.87,0.24 -1.74,0.36 -2.6,0.36z"/>
    </g>
    <g>
     <path class="fil0" d="M832.86 238.72c-2.3,0 -4.6,-0.83 -6.42,-2.51 -7.44,-6.85 -15.22,-13.51 -23.11,-19.79 -4.1,-3.26 -4.78,-9.22 -1.52,-13.32 3.26,-4.1 9.22,-4.78 13.32,-1.52 8.26,6.56 16.39,13.53 24.16,20.68 3.85,3.54 4.1,9.54 0.55,13.39 -1.87,2.03 -4.42,3.06 -6.98,3.06z"/>
    </g>
    <g>
     <path class="fil0" d="M762.27 186.02c-1.65,0 -3.33,-0.43 -4.85,-1.34 -31.43,-18.77 -65.2,-33.3 -100.34,-43.18 -5.04,-1.42 -7.97,-6.65 -6.56,-11.69 1.42,-5.04 6.65,-7.97 11.69,-6.56 36.75,10.34 72.05,25.53 104.92,45.15 4.49,2.68 5.97,8.5 3.28,13 -1.78,2.97 -4.92,4.62 -8.15,4.62z"/>
    </g>
    <g>
     <path class="fil0" d="M393.12 153.33c-3.83,0 -7.43,-2.34 -8.87,-6.13 -1.85,-4.9 0.62,-10.37 5.52,-12.22 14.94,-5.64 30.36,-10.5 45.83,-14.45 5.06,-1.29 10.23,1.77 11.53,6.84 1.29,5.07 -1.77,10.23 -6.84,11.53 -14.79,3.78 -29.54,8.43 -43.82,13.82 -1.1,0.42 -2.23,0.62 -3.35,0.62z"/>
    </g>
    <g>
     <path class="fil0" d="M246.14 246.92c-2.47,0 -4.93,-0.96 -6.79,-2.87 -3.65,-3.75 -3.57,-9.75 0.18,-13.4 33.47,-32.59 71.66,-59.45 113.51,-79.83 4.71,-2.29 10.38,-0.34 12.67,4.37 2.29,4.71 0.33,10.38 -4.37,12.67 -40.03,19.5 -76.56,45.19 -108.58,76.37 -1.84,1.79 -4.23,2.68 -6.61,2.68z"/>
    </g>
    <g>
     <path class="fil0" d="M159.36 367.26c-1.38,0 -2.79,-0.3 -4.12,-0.94 -4.71,-2.28 -6.69,-7.94 -4.41,-12.66 3.07,-6.35 6.33,-12.69 9.7,-18.87 2.5,-4.6 8.26,-6.3 12.85,-3.79 4.6,2.51 6.29,8.26 3.79,12.86 -3.22,5.9 -6.34,11.98 -9.27,18.05 -1.64,3.38 -5.02,5.35 -8.54,5.35z"/>
    </g>
    <g>
     <path class="fil0" d="M119.41 507.8c-0.33,0 -0.66,-0.01 -1,-0.05 -5.2,-0.54 -8.98,-5.21 -8.44,-10.41 3.76,-35.96 12,-71.34 24.47,-105.14 1.81,-4.91 7.25,-7.42 12.17,-5.61 4.91,1.81 7.42,7.26 5.61,12.17 -11.93,32.33 -19.8,66.16 -23.4,100.55 -0.51,4.87 -4.62,8.49 -9.42,8.49z"/>
    </g>
    <g>
     <path class="fil0" d="M124.79 633.99c-4.45,0 -8.42,-3.15 -9.29,-7.68 -1.41,-7.29 -2.64,-14.71 -3.67,-22.04 -0.73,-5.19 2.89,-9.97 8.07,-10.7 5.19,-0.72 9.97,2.89 10.7,8.07 0.98,7.01 2.16,14.1 3.51,21.07 0.99,5.14 -2.37,10.11 -7.51,11.1 -0.6,0.12 -1.21,0.17 -1.8,0.17z"/>
    </g>
    <g>
     <path class="fil0" d="M188.91 789.75c-3.06,0 -6.06,-1.47 -7.88,-4.21 -23.4,-34.97 -41.56,-73.02 -53.97,-113.08 -1.55,-5 1.25,-10.31 6.24,-11.86 5,-1.55 10.31,1.25 11.86,6.24 11.87,38.31 29.23,74.7 51.62,108.15 2.91,4.35 1.74,10.23 -2.61,13.15 -1.62,1.08 -3.45,1.6 -5.26,1.6z"/>
    </g>
    <g>
     <path class="fil0" d="M272.86 882.42c-2.12,0 -4.25,-0.71 -6.01,-2.16 -5.87,-4.82 -11.7,-9.88 -17.33,-15.04 -3.86,-3.53 -4.13,-9.53 -0.6,-13.39 3.53,-3.86 9.53,-4.13 13.39,-0.6 5.39,4.93 10.97,9.77 16.58,14.38 4.04,3.33 4.63,9.3 1.3,13.34 -1.87,2.28 -4.59,3.46 -7.33,3.46z"/>
    </g>
    <g>
     <path class="fil0" d="M401.75 955.25c-1.05,0 -2.11,-0.18 -3.15,-0.54 -35.59,-12.56 -69.49,-29.77 -100.75,-51.16 -4.32,-2.95 -5.43,-8.85 -2.47,-13.17 2.95,-4.32 8.85,-5.43 13.17,-2.47 29.91,20.45 62.33,36.91 96.36,48.92 4.93,1.74 7.52,7.16 5.78,12.09 -1.37,3.89 -5.03,6.33 -8.93,6.33z"/>
    </g>
    <g>
     <path class="fil0" d="M546.35 979.45c-5.21,0 -9.44,-4.2 -9.48,-9.42 -0.03,-5.24 4.19,-9.5 9.42,-9.54 10.3,-0.06 20.7,-0.5 30.91,-1.31 5.19,-0.42 9.79,3.48 10.2,8.7 0.41,5.22 -3.48,9.78 -8.7,10.2 -10.68,0.84 -21.55,1.31 -32.3,1.36 -0.02,0 -0.04,0 -0.06,0z"/>
    </g>
    <g>
     <path class="fil0" d="M629.14 970.94c-4.41,0 -8.37,-3.1 -9.28,-7.6 -1.04,-5.13 2.28,-10.13 7.4,-11.17 45.99,-9.34 89.78,-26.29 130.15,-50.39 4.5,-2.68 10.31,-1.21 13,3.28 2.68,4.49 1.21,10.31 -3.28,12.99 -42.22,25.21 -88.01,42.93 -136.1,52.69 -0.63,0.13 -1.27,0.19 -1.89,0.19z"/>
    </g>
    <g>
     <path class="fil0" d="M850.88 1030.92c-16.77,0 -30.42,-13.14 -30.42,-29.3 0,-16.16 13.65,-29.3 30.42,-29.3 16.78,0 30.42,13.14 30.42,29.3 0,16.16 -13.64,29.3 -30.42,29.3zm0 -39.64l0 0c-6.32,0 -11.47,4.64 -11.47,10.34 0,5.7 5.14,10.34 11.47,10.34 6.32,0 11.47,-4.64 11.47,-10.34 0,-5.7 -5.14,-10.34 -11.47,-10.34z"/>
    </g>
   </g>
   <path class="fil0" d="M401.88 290.19l324.37 0 0 11.66 -1.4 2.16c-9.26,14.28 -16.46,25.15 -21.59,32.63 -5.88,8.59 -9.74,13.64 -11.51,15.16l-2.41 2.06 -70.88 0c2.05,3.35 3.93,6.83 5.65,10.43 3.32,6.88 6.01,14.24 8.08,22.06l83.97 0 0.83 0.16c1.9,0.37 3.55,1.1 4.93,2.2l0.07 0.06c2.39,1.94 3.58,4.43 3.58,7.44l0 2.58 -1.43 2.15c-8.6,12.91 -16.16,24.14 -22.87,34.02 -6.83,10.05 -11.86,15.06 -15.05,15.06l-51.07 0c-1.19,6.38 -3.21,13.15 -6.07,20.32 -3.91,9.84 -9.42,20.44 -16.44,31.77l-0.6 0.87c-9.34,11.56 -18.51,21.1 -27.49,28.6 -9.26,7.73 -18.44,13.4 -27.52,17 -15.65,7.47 -31,13.08 -46,16.83 -10.23,2.56 -20.31,4.26 -30.23,5.13 3.15,3.95 7.19,8.77 12.12,14.46 45.97,44.33 113.96,137.49 158.12,190.68l0 11.92c0,3.15 -1.22,5.74 -3.65,7.66l-0.07 0.03c-1.86,1.45 -4.02,2.17 -6.5,2.17l-72.47 0 -2.58 -3c-61.7,-71.89 -107.99,-125.93 -138.85,-162.05 -32.24,-37.74 -48.37,-57.81 -48.37,-60.24l0 -45.19 3.82 -9.47 6.59 0.96c5.21,0.75 10.91,1.32 17.01,1.69 6.05,0.37 12.77,0.56 20.11,0.56 33.29,0 60.03,-5.3 80.26,-15.87 19.57,-10.23 33.2,-25.55 40.9,-45.96l0.03 -0.07c1.08,-2.78 1.92,-5.64 2.5,-8.6l0.04 -0.21 -178.53 0c-2.62,0 -4.86,-0.89 -6.67,-2.52l-0.13 -0.13c-2.03,-1.9 -3.08,-4.3 -3.08,-7.12l0 -2.61 1.53 -2.22c10.7,-15.53 18.56,-26.87 23.59,-34.01 7.07,-10.04 12.19,-15.07 15.34,-15.07l133.75 0c-2.57,-3.02 -5.52,-5.88 -8.84,-8.57 -7.54,-6.12 -17.01,-11.44 -28.38,-15.92 -8.3,-2.7 -16.13,-4.71 -23.46,-6.03 -7.3,-1.31 -14.3,-1.97 -20.94,-1.97l-91.92 0 0 -12.8 1.47 -2.17c10.07,-14.94 17.75,-26.22 23.01,-33.79 6.9,-9.93 11.96,-14.91 15.32,-14.91zm300.57 17.05l-300.57 0c-2.68,0 2.18,2.54 -1.33,7.58 -3.73,5.35 -8.73,12.69 -15.03,21.99l68.48 0c7.42,0 15.41,0.76 23.94,2.3 8.3,1.5 16.98,3.72 25.98,6.66l0.47 0.16c13.09,5.14 24.14,11.36 33.13,18.66 9.23,7.5 16.26,16.13 21.06,25.85l0.9 1.82 0 11.15 -157.6 0c-2.71,0 2.24,2.6 -1.42,7.81l-15.16 21.77 182.36 0 0 8.52c0,4.04 -0.4,8.03 -1.16,11.97 -0.74,3.83 -1.86,7.62 -3.34,11.44 -9.21,24.42 -25.52,42.77 -48.95,55.01 -22.78,11.9 -52.14,17.87 -88.12,17.87 -7.27,0 -14.32,-0.21 -21.11,-0.63 -3.24,-0.2 -6.36,-0.44 -9.37,-0.74l0 35.77c0,1.75 14.76,14.67 44.24,49.18 30.43,35.62 75.87,88.66 136.28,159.06l56.72 0 -152.91 -184.43c-7,-8.11 -12.22,-14.43 -15.65,-18.97 -4.62,-6.1 -6.93,-10.69 -6.93,-13.69l0 -9.19 8.53 0c13.36,0 27.04,-1.74 41.02,-5.23 14.14,-3.52 28.58,-8.81 43.29,-15.87l0.57 -0.27c7.35,-2.9 14.98,-7.66 22.87,-14.23 8.09,-6.76 16.38,-15.38 24.88,-25.86 6.36,-10.31 11.31,-19.84 14.78,-28.58 3.39,-8.51 5.38,-16.27 5.93,-23.26l0.63 -7.86 66.37 0c2.73,0 -2.42,-2.51 0.99,-7.53l14.79 -22.04 -83.41 0 -1.44 -6.76c-1.92,-8.98 -4.73,-17.34 -8.4,-25.02 -3.59,-7.6 -8.09,-14.53 -13.39,-20.76l-11.97 -14.05 98.97 0c1.43,-1.94 3.71,-5.19 6.85,-9.76 3.59,-5.23 8,-11.84 13.23,-19.81z"/>
  </g>
 </g>
</svg>
